<svg width="580" height="400" xmlns="http://www.w3.org/2000/svg">
 <!-- Created with Method Draw - http://github.com/duopixel/Method-Draw/ -->
 <g>
  <title>Layer 1</title>
  <ellipse fill="#eea058" stroke="#000" stroke-width="1.5" stroke-opacity="null" cx="296" cy="200.5" id="svg_4" rx="190.5" ry="190.5"/>
  <path id="svg_7" d="m288,203" fill-opacity="null" stroke-opacity="null" stroke-width="1.5" stroke="#000" fill="#ffffff"/>
  <path id="svg_8" d="m479,253" opacity="0.5" fill-opacity="null" stroke-opacity="null" stroke-width="1.5" stroke="#000" fill="#ffffff"/>
  <path id="svg_12" d="m296,221" opacity="0.5" fill-opacity="null" stroke-opacity="null" stroke-width="1.5" stroke="#000" fill="#ffffff"/>
  <path id="svg_13" d="m138,88" opacity="0.5" fill-opacity="null" stroke-opacity="null" stroke-width="1.5" stroke="#000" fill="#ffffff"/>
  <path id="svg_15" d="m295,221" fill-opacity="null" stroke-opacity="null" stroke-width="1.5" stroke="#000" fill="#ffffff"/>
  <path id="svg_16" d="m290.999994,9l1.020703,202c0,79 144.877811,155 185.768069,45c40.890258,-110 -57.159406,-256 -186.788772,-247z" stroke-width="1.5" fill="#28207c"/>
  <path id="svg_18" d="m301.999994,9l-1.029137,202c0,79 -146.074964,155 -187.303107,45c-41.228142,-110 57.631725,-256 188.332244,-247z" stroke-width="1.5" fill="#28207c"/>
  <ellipse ry="28.500001" rx="28.500001" id="svg_19" cy="204.499999" cx="244.500001" stroke-width="1.5" fill="#ffffff"/>
  <ellipse stroke="#000000" ry="14.000001" rx="14.000001" id="svg_21" cy="300" cx="295.999991" stroke-width="1.5" fill="#ffffff"/>
  <ellipse ry="28.500001" rx="28.500001" id="svg_22" cy="204.499999" cx="344.505158" stroke-width="1.5" fill="#ffffff"/>
  <text xml:space="preserve" text-anchor="start" font-family="Helvetica, Arial, sans-serif" font-size="101" id="svg_23" y="117" x="262" stroke-width="0" fill="#ffffff">A</text>
  <path stroke="#000000" id="svg_25" d="m464,109l20,-23l28,18l-48,5z" stroke-width="1.5" fill="#ffffff"/>
  <path stroke="#000000" id="svg_26" d="m129.784515,109l-21.25,-23l-29.75,18l51,5z" stroke-width="1.5" fill="#ffffff"/>
 </g>
</svg>