<svg width="580" height="400" xmlns="http://www.w3.org/2000/svg">
 <!-- Created with Method Draw - http://github.com/duopixel/Method-Draw/ -->
 <g>
  <title>Layer 1</title>
  <path stroke="#000000" id="svg_12" d="m462,219c44.822728,80 93.380684,86 43.888921,128c-49.491762,42 -70.96932,-25 -70.96932,-25" stroke-opacity="null" stroke-width="1.5" fill="#612a25"/>
  <path id="svg_11" d="m112,213c-48,80 -100,86 -47,128c53,42 76,-25 76,-25" stroke-opacity="null" stroke-width="1.5" stroke="#000000" fill="#612a25"/>
  <ellipse ry="190.5" rx="190.5" id="svg_4" cy="197.5" cx="290" stroke-opacity="null" stroke-width="1.5" stroke="#000" fill="#eea058"/>
  <ellipse fill="#612a25" stroke-width="1.5" stroke-opacity="null" cx="292.000004" cy="48" id="svg_25" rx="100.000003" ry="40" stroke="#000000"/>
  <path fill="#dd292c" stroke-width="1.5" d="m289,57.22222c0,0 49.711458,-47.666665 103.708387,-23.222221c53.996929,24.444444 93.423257,-32.999999 93.423257,-32.999999c0,0 42.854705,130.777773 27.427011,216.333326c-15.427694,85.555553 -37.712141,91.666663 -37.712141,91.666663c-23.998635,-3.666667 -186.846515,-30.555554 -186.846515,-30.555554c0,0 0,-221.222215 0,-221.222215z" id="svg_3"/>
  <path fill="#dd292c" stroke-width="1.5" d="m289,57.22222c0,0 -49.096698,-47.666666 -102.42587,-23.222221c-53.329171,24.444443 -92.267931,-33 -92.267931,-33c0,0 -42.324739,130.777774 -27.087833,216.333326c15.236906,85.555553 37.24577,91.666664 37.24577,91.666664c23.701854,-3.666667 184.535864,-30.555554 184.535864,-30.555554c0,0 0,-221.222215 0,-221.222215z" id="svg_9"/>
  <ellipse fill="#ffffff" stroke-width="1.5" cx="252" cy="233" id="svg_6" rx="18" ry="18" stroke="#000000"/>
  <ellipse fill="#ffffff" stroke-width="1.5" cx="321.064255" cy="233" id="svg_7" rx="18" ry="18" stroke="#000000"/>
  <ellipse stroke="#000000" fill="#ffffff" stroke-width="1.5" cx="289.06426" cy="312.248287" id="svg_8" rx="12" ry="11"/>
 </g>
</svg>