<svg width="580" height="400" xmlns="http://www.w3.org/2000/svg">
 <!-- Created with Method Draw - http://github.com/duopixel/Method-Draw/ -->
 <g>
  <title>Layer 1</title>
  <ellipse ry="190.5" rx="190.5" id="svg_4" cy="197.5" cx="291" stroke-opacity="null" stroke-width="1.5" stroke="#000" fill="#b52324"/>
  <line stroke-linecap="null" stroke-linejoin="null" id="svg_2" y2="391.063631" x2="291" y1="6" x1="291" stroke-opacity="null" stroke-width="1.5" stroke="#000" fill="none"/>
  <line stroke-linecap="null" stroke-linejoin="null" id="svg_3" y2="391.063631" x2="291" y1="6" x1="291" stroke-opacity="null" stroke-width="1.5" stroke="#000" fill="none"/>
  <ellipse ry="190.5" rx="190.5" id="svg_6" cy="197.5" cx="291" stroke-opacity="null" stroke-width="1.5" stroke="#000" fill="#b52324"/>
  <line stroke="#000" stroke-linecap="null" stroke-linejoin="null" id="svg_7" y2="386.674525" x2="292.5" y1="9.000007" x1="292.5" stroke-opacity="null" stroke-width="1.5" fill="none"/>
  <ellipse ry="190.5" rx="190.5" id="svg_8" cy="197.5" cx="291" stroke-opacity="null" stroke-width="1.5" stroke="#000" fill="#b52324"/>
  <rect stroke="#000" transform="rotate(45 291.5000000000001,198.49998474121088) " id="svg_14" height="264.213191" width="264.213191" y="66.393394" x="159.393409" stroke-opacity="null" stroke-width="1.5" fill="#b52324"/>
  <rect stroke="#000" transform="rotate(45 291.0000000000001,197.49999999999997) " id="svg_16" height="163.096922" width="163.096922" y="115.95153" x="209.451537" stroke-opacity="null" stroke-width="1.5" fill="#b52324"/>
  <line stroke-linecap="null" stroke-linejoin="null" id="svg_9" y2="389.157931" x2="291" y1="6" x1="291" stroke-opacity="null" stroke-width="1.5" stroke="#000" fill="none"/>
  <line transform="rotate(-56.290000915527344 291,197.57896423339844) " stroke-linecap="null" stroke-linejoin="null" id="svg_10" y2="389.157931" x2="291" y1="6" x1="291" stroke-opacity="null" stroke-width="1.5" stroke="#000" fill="none"/>
  <line transform="rotate(-123.9822998046875 291,197.57896423339844) " stroke-linecap="null" stroke-linejoin="null" id="svg_11" y2="389.157931" x2="291" y1="6" x1="291" stroke-opacity="null" stroke-width="1.5" stroke="#000" fill="none"/>
  <ellipse stroke="#000" transform="rotate(24.931793212890625 222.86666870117196,222.02279663085938) " ry="24.394991" rx="66.481349" id="svg_18" cy="222.022797" cx="222.866664" stroke-opacity="null" stroke-width="1.5" fill="#ffffff"/>
  <ellipse stroke="#000" transform="rotate(152.9892120361328 361.8666687011719,222.0227813720703) " ry="24.394991" rx="66.481349" id="svg_19" cy="222.022782" cx="361.866664" stroke-opacity="null" stroke-width="1.5" fill="#ffffff"/>
  <ellipse ry="19" rx="19" id="svg_20" cy="300" cx="292" stroke-width="1.5" fill="#000"/>
 </g>
</svg>