<svg width="580" height="400" xmlns="http://www.w3.org/2000/svg">
 <!-- Created with Method Draw - http://github.com/duopixel/Method-Draw/ -->
 <defs>
  <linearGradient y2="0" x2="1" y1="0" x1="0" id="svg_10">
   <stop offset="0" stop-color="#ffffff"/>
   <stop offset="1" stop-color="#000000"/>
  </linearGradient>
 </defs>
 <g>
  <title>Layer 1</title>
  <path fill="#f9e13a" stroke-width="1.5" d="m462,219c44.82273,80 93.38068,86 43.88892,128c-49.49176,42 -70.96932,-25 -70.96932,-25" id="svg_12" stroke="#000000"/>
  <path fill="#f9e13a" stroke="#000000" stroke-width="1.5" stroke-opacity="null" d="m112,213c-48,80 -100,86 -47,128c53,42 76,-25 76,-25" id="svg_11"/>
  <ellipse fill="#eea058" stroke="#000" stroke-width="1.5" stroke-opacity="null" cx="290" cy="197.5" id="svg_4" rx="190.5" ry="190.5"/>
  <ellipse stroke="#000000" ry="73.999998" rx="144.500003" id="svg_25" cy="81.999998" cx="292.499997" stroke-width="1.5" fill="url(#svg_10)"/>
  <path id="svg_7" d="m60.7,84.92312l36.5,-50l36.5,50l-73,0z" stroke-width="1.5" stroke="#000000" fill="#ffffff"/>
  <path id="svg_8" d="m446.032336,84.92312l36.5,-50l36.5,50l-73,0z" stroke-width="1.5" stroke="#000000" fill="#ffffff"/>
  <rect id="svg_9" height="35" width="318" y="123" x="133" stroke-opacity="null" stroke-width="1.5" stroke="#000000" fill="url(#svg_10)"/>
  <ellipse ry="25" rx="25" id="svg_13" cy="224" cx="219" stroke-width="1.5" stroke="#000000" fill="#ffffff"/>
  <ellipse ry="25" rx="25" id="svg_14" cy="224" cx="352.540253" stroke-width="1.5" stroke="#000000" fill="#ffffff"/>
  <ellipse stroke="#000000" ry="15.5" rx="15.5" id="svg_15" cy="284.5" cx="290" stroke-width="1.5" fill="#ffffff"/>
 </g>
</svg>